<svg t="1683685646811" class="icon" viewBox="0 0 1193 1024" version="1.1"
  xmlns="http://www.w3.org/2000/svg" p-id="1226" width="200" height="200">
  <path
    d="M261.287971 181.657351m58.478736 0l554.925881 0q58.478736 0 58.478736 58.478736l0 102.026732q0 58.478736-58.478736 58.478736l-554.925881 0q-58.478736 0-58.478736-58.478736l0-102.026732q0-58.478736 58.478736-58.478736Z"
    fill="#F4B14B" p-id="1227"></path>
  <path
    d="M332.208991 265.020656m63.455651 0l400.641555 0q63.45565 0 63.45565 63.45565l0 450.410693q0 63.45565-63.45565 63.45565l-400.641555 0q-63.45565 0-63.455651-63.45565l0-450.410693q0-63.45565 63.455651-63.45565Z"
    fill="#2782F2" fill-opacity=".9" p-id="1228"></path>
  <path
    d="M477.783718 399.397327m29.861482 0l176.680438 0q29.861482 0 29.861482 29.861482l0 0q0 29.861482-29.861482 29.861483l-176.680438 0q-29.861482 0-29.861482-29.861483l0 0q0-29.861482 29.861482-29.861482Z"
    fill="#FFFFFF" p-id="1229"></path>
  <path
    d="M477.783718 563.63548m29.861482 0l176.680438 0q29.861482 0 29.861482 29.861482l0 0q0 29.861482-29.861482 29.861483l-176.680438 0q-29.861482 0-29.861482-29.861483l0 0q0-29.861482 29.861482-29.861482Z"
    fill="#FFFFFF" p-id="1230"></path>
</svg>