<?xml version="1.0" standalone="no"?><!DOCTYPE svg PUBLIC "-//W3C//DTD SVG 1.1//EN" "http://www.w3.org/Graphics/SVG/1.1/DTD/svg11.dtd"><svg t="1690608400542" class="icon" viewBox="0 0 1024 1024" version="1.1" xmlns="http://www.w3.org/2000/svg" p-id="7472" xmlns:xlink="http://www.w3.org/1999/xlink" width="200" height="200"><path d="M398.93 256h152.71c135.13 0 245.33 107.19 252.55 241.92l10.87-11.29c14.02-14.55 37.18-14.99 51.73-0.98 13.44 12.93 14.84 33.65 3.95 48.21l-2.98 3.5-73.44 76.23c-13.28 13.79-34.69 14.85-49.23 3.18l-3.48-3.18-73.44-76.23c-14.02-14.55-13.58-37.7 0.98-51.71 13.44-12.93 34.2-13.56 48.34-2.13l3.39 3.11 9.89 10.23c-7.35-91.32-80.62-163.49-171.12-167.54l-8.03-0.18H398.93c-99.15 0-179.75 81.75-179.75 182.86 0 98.45 76.41 178.54 171.96 182.69l7.79 0.17h254.52c20.21 0 36.59 16.37 36.59 36.57 0 18.76-14.12 34.21-32.32 36.33l-4.27 0.25H398.93C259.12 768 146 653.27 146 512c0-138.32 108.45-251.21 244.22-255.85l8.71-0.15h152.71z" p-id="7473" fill="#ffffff"></path></svg>